<?xml version="1.0" encoding="UTF-8"?>
<svg id="Layer_2" data-name="Layer 2" xmlns="http://www.w3.org/2000/svg" xmlns:xlink="http://www.w3.org/1999/xlink" viewBox="0 0 1000 1000">
  <defs>
    <style>
      .cls-1 {
        fill: url(#linear-gradient-2);
      }

      .cls-2 {
        fill: #fff;
      }

      .cls-3 {
        fill: url(#linear-gradient-4);
      }

      .cls-4 {
        fill: url(#linear-gradient-3);
      }

      .cls-5 {
        fill: url(#linear-gradient-5);
      }

      .cls-6 {
        fill: url(#linear-gradient-6);
      }

      .cls-7 {
        fill: url(#linear-gradient);
      }
    </style>
    <linearGradient id="linear-gradient" x1="921.99" y1="906.36" x2="311.91" y2="318.87" gradientUnits="userSpaceOnUse">
      <stop offset="0" stop-color="#1d1da3"/>
      <stop offset="1" stop-color="#31a7ff"/>
    </linearGradient>
    <linearGradient id="linear-gradient-2" x1="775.38" y1="1108.93" x2="165.3" y2="521.44" gradientUnits="userSpaceOnUse">
      <stop offset="0" stop-color="#1d1da3"/>
      <stop offset="1" stop-color="#31a7ff"/>
    </linearGradient>
    <linearGradient id="linear-gradient-3" x1="583.88" y1="1255.54" x2="-26.2" y2="668.05" xlink:href="#linear-gradient-2"/>
    <linearGradient id="linear-gradient-4" x1="1113.49" y1="759.75" x2="503.41" y2="172.26" gradientUnits="userSpaceOnUse">
      <stop offset=".14" stop-color="#1d1da3"/>
      <stop offset="1" stop-color="#31a7ff"/>
    </linearGradient>
    <linearGradient id="linear-gradient-5" x1="1055.01" y1="1047.19" x2="444.93" y2="459.7" xlink:href="#linear-gradient"/>
    <linearGradient id="linear-gradient-6" x1="1331.5" y1="625.94" x2="616.8" y2="-62.3" gradientUnits="userSpaceOnUse">
      <stop offset=".38" stop-color="#1d1da3"/>
      <stop offset="1" stop-color="#31a7ff"/>
    </linearGradient>
  </defs>
  <g id="Layer_1-2" data-name="Layer 1">
    <g>
      <g>
        <rect class="cls-7" x="343.75" y="343.75" width="312.5" height="312.5" rx="78.12" ry="78.12"/>
        <rect class="cls-1" x="343.75" y="687.5" width="312.5" height="312.5" rx="78.12" ry="78.12"/>
      </g>
      <rect class="cls-4" x="0" y="687.5" width="312.5" height="312.5" rx="78.12" ry="78.12"/>
      <g>
        <rect class="cls-3" x="687.5" y="343.75" width="312.5" height="312.5" rx="78.12" ry="78.12"/>
        <rect class="cls-5" x="687.5" y="687.5" width="312.5" height="312.5" rx="78.12" ry="78.12"/>
        <g>
          <rect class="cls-6" x="687.5" y="0" width="312.5" height="312.5" rx="156.25" ry="156.25"/>
          <polygon class="cls-2" points="843.75 31.25 735.39 218.75 952.11 218.75 843.75 31.25"/>
        </g>
      </g>
    </g>
  </g>
</svg>